<svg width="24" height="24" viewBox="0 0 24 24" fill="none" xmlns="http://www.w3.org/2000/svg">
  <path d="M6 9H4C3.44772 9 3 9.44772 3 10V20C3 20.5523 3.44772 21 4 21H6C6.55228 21 7 20.5523 7 20V10C7 9.44772 6.55228 9 6 9Z" fill="currentColor"/>
  <path d="M13 5H11C10.4477 5 10 5.44772 10 6V20C10 20.5523 10.4477 21 11 21H13C13.5523 21 14 20.5523 14 20V6C14 5.44772 13.5523 5 13 5Z" fill="currentColor"/>
  <path d="M20 13H18C17.4477 13 17 13.4477 17 14V20C17 20.5523 17.4477 21 18 21H20C20.5523 21 21 20.5523 21 20V14C21 13.4477 20.5523 13 20 13Z" fill="currentColor"/>
  <path d="M12 2L14 4H10L12 2Z" fill="currentColor"/>
</svg>