<svg width="360" height="193" viewBox="0 0 360 193" fill="none" xmlns="http://www.w3.org/2000/svg">
<path d="M30.7288 87.2426L27.7162 38.0071L24.7036 87.2426H30.7288ZM33.3398 129.519L31.9339 106.206H23.2977L21.8918 129.519H0L12.4522 0.0800781H44.5869L58.0434 129.519H33.3398Z" fill="#47484A" style="fill:#47484A;fill:color(display-p3 0.2784 0.2824 0.2902);fill-opacity:1;"/>
<path d="M59.8729 0.0800781H85.179L85.3799 108.99H101.447L101.246 129.519H59.8729V0.0800781Z" fill="#47484A" style="fill:#47484A;fill:color(display-p3 0.2784 0.2824 0.2902);fill-opacity:1;"/>
<path d="M104.788 0.0800781H130.094L130.295 108.99H146.362L146.161 129.519H104.788V0.0800781Z" fill="#47484A" style="fill:#47484A;fill:color(display-p3 0.2784 0.2824 0.2902);fill-opacity:1;"/>
<path d="M176.44 129.519V19.9135H164.992V0.0800781H212.993V19.9135H201.545V129.519H176.44Z" fill="#47484A" style="fill:#47484A;fill:color(display-p3 0.2784 0.2824 0.2902);fill-opacity:1;"/>
<path d="M242.092 0.0800781V129.519H216.585V0.0800781H242.092Z" fill="#47484A" style="fill:#47484A;fill:color(display-p3 0.2784 0.2824 0.2902);fill-opacity:1;"/>
<path d="M246.201 129.519V0.0800781H275.323L279.742 62.8858L284.16 0.0800781H312.479V129.519H291.19V57.1446L283.758 129.519H274.721L267.089 57.1446V129.519H246.201Z" fill="#47484A" style="fill:#47484A;fill:color(display-p3 0.2784 0.2824 0.2902);fill-opacity:1;"/>
<path d="M316.417 0.0800781H359.397V19.9135H341.322V51.4033H356.586V71.9326H341.322V109.338H360V129.519H316.417V0.0800781Z" fill="#47484A" style="fill:#47484A;fill:color(display-p3 0.2784 0.2824 0.2902);fill-opacity:1;"/>
<path d="M0 192.261V135.567H62.4091C79.6306 135.567 83.8979 141.968 83.8979 148.293V148.75C83.8979 155.151 78.3352 158.808 72.6201 160.028C79.9354 161.247 87.2508 164.981 87.2508 175.039V175.649C87.2508 184.564 81.0785 192.261 62.4091 192.261H0ZM49.2262 150.274H28.9566V155.76H49.2262C52.8077 155.76 54.3317 155.074 54.3317 153.017V152.865C54.3317 150.731 52.8077 150.274 49.2262 150.274ZM50.3692 170.01H28.9566V177.021H50.3692C55.3223 177.021 56.4654 175.573 56.4654 173.439V173.287C56.4654 171.153 55.3223 170.01 50.3692 170.01Z" fill="#47484A" style="fill:#47484A;fill:color(display-p3 0.2784 0.2824 0.2902);fill-opacity:1;"/>
<path d="M118.851 158.199H139.958C143.921 158.199 145.216 156.675 145.216 154.617C145.216 152.484 143.845 151.036 139.958 151.036H118.851V158.199ZM118.851 174.125V192.261H89.894V135.567H152.532C164.724 135.567 174.859 138.615 174.859 149.893V150.579C174.859 159.037 166.934 162.618 161.752 163.685C170.82 165.438 175.164 170.543 175.164 177.935V186.546C175.164 189.365 175.545 190.661 176.154 191.804V192.261H146.359C145.978 191.88 145.978 191.346 145.978 190.508V183.65C145.978 177.859 143.159 174.125 135.005 174.125H118.851Z" fill="#47484A" style="fill:#47484A;fill:color(display-p3 0.2784 0.2824 0.2902);fill-opacity:1;"/>
<path d="M179.044 135.567H211.734L238.405 161.323V135.567H267.362V192.261H237.871L208 163.914V192.261H179.044V135.567Z" fill="#47484A" style="fill:#47484A;fill:color(display-p3 0.2784 0.2824 0.2902);fill-opacity:1;"/>
<path d="M272.063 192.261V135.567H317.479C349.865 135.567 360 147.759 360 162.39V164.752C360 178.849 352.304 192.261 317.479 192.261H272.063ZM301.02 153.169V174.734H312.603C328.986 174.734 330.053 167.267 330.053 163.914V163.457C330.053 160.104 328.757 153.169 312.603 153.169H301.02Z" fill="#47484A" style="fill:#47484A;fill:color(display-p3 0.2784 0.2824 0.2902);fill-opacity:1;"/>
</svg>
