<svg width="370" height="199" viewBox="0 0 370 199" fill="none" xmlns="http://www.w3.org/2000/svg">
<path d="M0 132.496V1.23499H27.4756L31.6443 64.925L35.813 1.23499H62.5307V132.496H42.4451V59.103L35.4341 132.496H26.9072L19.7066 59.103V132.496H0Z" fill="#47484A" style="fill:#47484A;fill:color(display-p3 0.2784 0.2824 0.2902);fill-opacity:1;"/>
<path d="M121.198 25.9347V108.326C121.198 124.734 111.534 133.731 95.8064 133.731H91.8272C75.1523 133.731 66.2464 124.557 66.2464 108.326V25.9347C66.2464 9.70347 73.8259 0 91.8272 0H95.6169C113.618 0 121.198 10.2328 121.198 25.9347ZM96.5643 110.267V23.4648C96.5643 20.8184 95.6169 19.5834 93.722 19.5834C92.0166 19.5834 91.0692 20.8184 91.0692 23.4648V110.267C91.0692 112.56 92.0166 113.795 93.722 113.795C95.6169 113.795 96.5643 112.56 96.5643 110.267Z" fill="#47484A" style="fill:#47484A;fill:color(display-p3 0.2784 0.2824 0.2902);fill-opacity:1;"/>
<path d="M124.906 1.23499H149.16L158.445 72.335L158.256 1.23499H178.152V132.496H155.982L144.802 53.8102L144.992 132.496H124.906V1.23499Z" fill="#47484A" style="fill:#47484A;fill:color(display-p3 0.2784 0.2824 0.2902);fill-opacity:1;"/>
<path d="M192.322 132.496V21.3476H181.521V1.23499H226.809V21.3476H216.008V132.496H192.322Z" fill="#47484A" style="fill:#47484A;fill:color(display-p3 0.2784 0.2824 0.2902);fill-opacity:1;"/>
<path d="M230.197 132.496V1.23499H254.262V52.2223H259.378V1.23499H283.253V132.496H259.378V75.3342H254.262V132.496H230.197Z" fill="#47484A" style="fill:#47484A;fill:color(display-p3 0.2784 0.2824 0.2902);fill-opacity:1;"/>
<path d="M287.006 1.23499H310.881L311.071 111.678H326.23L326.04 132.496H287.006V1.23499Z" fill="#47484A" style="fill:#47484A;fill:color(display-p3 0.2784 0.2824 0.2902);fill-opacity:1;"/>
<path d="M331.913 132.496V80.8035L316.375 1.23499H340.251L344.419 46.5767L348.588 1.23499H370L355.788 80.8035V132.496H331.913Z" fill="#47484A" style="fill:#47484A;fill:color(display-p3 0.2784 0.2824 0.2902);fill-opacity:1;"/>
<path d="M0 199V140.661H64.1427C81.8426 140.661 86.2284 147.248 86.2284 153.756V154.227C86.2284 160.813 80.5112 164.577 74.6373 165.832C82.1559 167.086 89.6744 170.928 89.6744 181.279V181.906C89.6744 191.08 83.3306 199 64.1427 199H0ZM50.5936 155.795H29.7609V161.44H50.5936C54.2746 161.44 55.8409 160.735 55.8409 158.618V158.461C55.8409 156.265 54.2746 155.795 50.5936 155.795ZM51.7684 176.104H29.7609V183.318H51.7684C56.8591 183.318 58.0338 181.828 58.0338 179.632V179.475C58.0338 177.28 56.8591 176.104 51.7684 176.104Z" fill="#47484A" style="fill:#47484A;fill:color(display-p3 0.2784 0.2824 0.2902);fill-opacity:1;"/>
<path d="M122.152 163.95H143.846C147.919 163.95 149.25 162.381 149.25 160.264C149.25 158.069 147.84 156.579 143.846 156.579H122.152V163.95ZM122.152 180.338V199H92.3911V140.661H156.769C169.3 140.661 179.716 143.798 179.716 155.403V156.108C179.716 164.812 171.571 168.498 166.245 169.595C175.565 171.399 180.029 176.652 180.029 184.258V193.119C180.029 196.02 180.421 197.353 181.047 198.53V199H150.425C150.033 198.608 150.033 198.059 150.033 197.197V190.139C150.033 184.18 147.136 180.338 138.756 180.338H122.152Z" fill="#47484A" style="fill:#47484A;fill:color(display-p3 0.2784 0.2824 0.2902);fill-opacity:1;"/>
<path d="M184.017 140.661H217.616L245.027 167.165V140.661H274.788V199H244.479L213.778 169.831V199H184.017V140.661Z" fill="#47484A" style="fill:#47484A;fill:color(display-p3 0.2784 0.2824 0.2902);fill-opacity:1;"/>
<path d="M279.621 199V140.661H326.298C359.584 140.661 370 153.207 370 168.262V170.693C370 185.199 362.09 199 326.298 199H279.621ZM309.382 158.774V180.965H321.286C338.124 180.965 339.221 173.281 339.221 169.831V169.36C339.221 165.91 337.889 158.774 321.286 158.774H309.382Z" fill="#47484A" style="fill:#47484A;fill:color(display-p3 0.2784 0.2824 0.2902);fill-opacity:1;"/>
</svg>
